<?xml version="1.0" standalone="no"?>
<!DOCTYPE svg PUBLIC "-//W3C//DTD SVG 20010904//EN"
 "http://www.w3.org/TR/2001/REC-SVG-20010904/DTD/svg10.dtd">
<svg version="1.0" xmlns="http://www.w3.org/2000/svg"
 width="2923.000000pt" height="2924.000000pt" viewBox="0 0 2923.000000 2924.000000"
 preserveAspectRatio="xMidYMid meet">

<g transform="translate(0.000000,2924.000000) scale(0.100000,-0.100000)"
fill="#000000" stroke="none">
<path d="M9020 27809 c0 -5 5 -7 10 -4 6 3 10 8 10 11 0 2 -4 4 -10 4 -5 0
-10 -5 -10 -11z"/>
<path d="M8945 27740 c-3 -5 -1 -10 4 -10 6 0 11 5 11 10 0 6 -2 10 -4 10 -3
0 -8 -4 -11 -10z"/>
<path d="M8865 27660 c-3 -5 -1 -10 4 -10 6 0 11 5 11 10 0 6 -2 10 -4 10 -3
0 -8 -4 -11 -10z"/>
<path d="M8385 27099 c-4 -6 -5 -13 -2 -16 7 -7 27 6 27 18 0 12 -17 12 -25
-2z"/>
<path d="M28280 26941 c0 -5 5 -13 10 -16 6 -3 10 -2 10 4 0 5 -4 13 -10 16
-5 3 -10 2 -10 -4z"/>
<path d="M8225 26860 c-3 -5 -1 -10 4 -10 6 0 11 5 11 10 0 6 -2 10 -4 10 -3
0 -8 -4 -11 -10z"/>
<path d="M28365 26780 c-3 -5 -1 -10 4 -10 6 0 11 5 11 10 0 6 -2 10 -4 10 -3
0 -8 -4 -11 -10z"/>
<path d="M8140 26694 c0 -8 5 -12 10 -9 6 3 10 10 10 16 0 5 -4 9 -10 9 -5 0
-10 -7 -10 -16z"/>
<path d="M28442 26624 c4 -21 22 -23 26 -1 2 10 -3 17 -13 17 -10 0 -15 -6
-13 -16z"/>
<path d="M8054 26549 c-3 -6 -1 -16 5 -22 9 -9 14 -8 21 3 9 15 4 30 -10 30
-5 0 -12 -5 -16 -11z"/>
<path d="M28525 26530 c3 -5 8 -10 11 -10 2 0 4 5 4 10 0 6 -5 10 -11 10 -5 0
-7 -4 -4 -10z"/>
<path d="M7974 26389 c-3 -6 -1 -16 5 -22 9 -9 14 -8 21 3 9 15 4 30 -10 30
-5 0 -12 -5 -16 -11z"/>
<path d="M28600 26381 c0 -6 5 -13 10 -16 6 -3 10 1 10 9 0 9 -4 16 -10 16 -5
0 -10 -4 -10 -9z"/>
<path d="M7894 26229 c-8 -14 11 -33 25 -25 16 10 13 36 -3 36 -8 0 -18 -5
-22 -11z"/>
<path d="M28680 26140 c0 -11 7 -20 15 -20 8 0 15 9 15 20 0 11 -7 20 -15 20
-8 0 -15 -9 -15 -20z"/>
<path d="M7817 26084 c-11 -11 -8 -52 4 -60 14 -8 30 15 27 40 -3 21 -20 31
-31 20z"/>
<path d="M28754 25996 c-4 -9 -1 -30 6 -47 11 -26 15 -28 22 -15 12 22 6 68
-9 74 -7 2 -16 -4 -19 -12z"/>
<path d="M7730 25822 c0 -35 9 -45 27 -31 21 18 17 59 -7 59 -15 0 -20 -7 -20
-28z"/>
<path d="M28834 25755 c-9 -22 17 -80 27 -63 15 23 11 78 -6 78 -9 0 -18 -7
-21 -15z"/>
<path d="M7650 25583 c0 -16 5 -35 10 -43 9 -13 11 -13 20 0 5 8 10 27 10 43
0 20 -5 27 -20 27 -15 0 -20 -7 -20 -27z"/>
<path d="M28915 25468 c12 -108 31 -112 36 -8 3 65 1 70 -22 70 -20 0 -21 -3
-14 -62z"/>
<path d="M7577 25363 c-10 -9 -7 -124 3 -148 7 -19 9 -18 19 8 16 41 15 147
-2 147 -8 0 -17 -3 -20 -7z"/>
<path d="M28993 25136 c12 -136 37 -138 37 -3 0 72 -1 77 -21 77 -21 0 -22 -3
-16 -74z"/>
<path d="M7490 24862 c0 -22 3 -75 7 -118 5 -66 8 -74 15 -49 4 17 11 69 15
118 6 84 5 87 -16 87 -18 0 -21 -6 -21 -38z"/>
<path d="M29077 24663 c-7 -11 8 -481 15 -488 10 -11 17 96 19 285 1 102 1
191 0 198 -1 13 -27 17 -34 5z"/>
<path d="M21642 21101 c2 -7 7 -12 11 -12 12 1 9 15 -3 20 -7 2 -11 -2 -8 -8z"/>
<path d="M21712 21018 c6 -18 28 -21 28 -4 0 9 -7 16 -16 16 -9 0 -14 -5 -12
-12z"/>
<path d="M22114 20466 c-4 -10 -2 -22 4 -28 8 -8 13 -7 18 6 4 10 2 22 -4 28
-8 8 -13 7 -18 -6z"/>
<path d="M22272 20216 c1 -10 8 -17 13 -17 15 1 12 24 -3 29 -9 3 -13 -2 -10
-12z"/>
<path d="M22354 20066 c-4 -10 -2 -22 4 -28 8 -8 13 -7 18 6 4 10 2 22 -4 28
-8 8 -13 7 -18 -6z"/>
<path d="M22430 19896 c0 -17 5 -26 16 -26 10 0 14 7 12 22 -5 32 -28 35 -28
4z"/>
<path d="M22510 19691 c0 -48 12 -72 25 -51 9 14 -5 100 -16 100 -5 0 -9 -22
-9 -49z"/>
<path d="M22591 19521 c-13 -23 -4 -51 15 -51 9 0 14 11 14 29 0 37 -15 48
-29 22z"/>
<path d="M22672 19293 c-25 -45 -6 -91 25 -61 12 13 12 20 0 49 -13 33 -14 33
-25 12z"/>
<path d="M22756 19030 c-3 -8 -7 -40 -9 -70 -2 -44 1 -55 15 -58 9 -2 19 5 22
15 7 24 -20 133 -28 113z"/>
<path d="M22827 18594 c-4 -42 -4 -80 -1 -85 8 -14 31 -11 37 5 7 17 -14 156
-23 156 -4 0 -10 -34 -13 -76z"/>
<path d="M7473 18233 c-4 -10 -8 -27 -12 -53 -2 -12 2 -6095 4 -6281 3 -209
16 -301 50 -339 17 -19 23 -59 30 -183 5 -99 18 -145 53 -195 12 -17 21 -53
25 -98 8 -83 22 -131 49 -160 12 -13 25 -53 33 -100 8 -44 19 -93 25 -109 11
-28 12 -29 23 -10 6 11 11 47 11 79 1 38 5 61 14 63 19 7 17 -180 -3 -197 -24
-20 -13 -130 13 -130 10 0 33 147 35 230 1 36 -4 87 -11 115 -8 34 -10 88 -6
175 6 125 6 125 39 156 29 28 33 38 40 108 7 74 8 78 36 88 16 5 29 13 30 16
20 123 25 137 44 141 31 5 45 21 45 52 0 21 7 32 29 43 17 9 32 27 36 43 9 37
23 53 47 53 10 0 21 8 24 18 3 9 12 29 20 44 8 14 14 35 14 45 0 12 12 25 32
34 19 8 35 24 38 38 3 14 19 30 40 40 20 9 36 26 40 40 3 14 19 30 40 40 20 9
36 26 40 40 3 14 19 30 40 40 20 9 36 26 40 40 3 14 19 30 40 40 20 9 36 26
40 40 3 14 19 30 40 40 20 9 36 26 40 40 3 14 19 30 40 40 20 9 36 26 40 40 3
14 19 30 40 40 20 9 36 26 40 40 3 14 19 30 40 40 20 9 36 26 40 40 3 14 19
30 40 40 19 9 37 26 40 39 3 12 20 30 40 40 19 9 37 27 40 40 3 12 20 30 40
40 19 9 37 27 40 40 3 12 20 30 40 40 19 9 37 27 40 40 3 12 20 30 40 40 19 9
37 27 40 40 3 12 20 30 40 40 20 10 37 27 40 41 3 14 19 30 40 40 23 10 36 24
38 39 3 16 15 28 38 38 22 9 36 23 40 40 4 17 18 31 40 40 22 9 36 23 40 40 4
17 18 31 41 40 24 10 35 23 39 42 4 21 14 31 37 38 23 6 34 17 41 40 7 22 18
33 40 40 22 6 34 18 40 40 7 22 18 33 40 40 22 6 34 18 40 40 7 22 18 33 40
40 22 6 34 18 40 40 7 22 18 33 40 40 22 6 34 18 40 40 7 22 18 33 40 40 22 6
34 18 40 40 7 22 18 33 40 40 22 6 34 18 40 40 7 22 18 33 40 40 22 6 34 18
40 40 7 22 18 33 40 40 22 6 34 18 40 40 7 22 18 33 40 40 22 6 34 18 40 40 7
22 18 33 40 40 22 6 34 18 40 40 7 22 18 33 40 40 22 6 34 18 40 40 7 22 18
33 40 40 22 6 34 18 40 40 7 22 18 33 40 40 22 6 34 18 40 40 7 22 18 33 40
40 22 6 34 18 40 40 7 22 18 33 40 40 22 6 34 18 40 40 7 22 18 33 40 40 23 7
34 18 41 42 7 23 15 32 31 32 26 0 40 15 49 53 5 19 13 27 30 27 27 0 41 15
50 53 5 20 13 27 31 27 25 0 54 33 54 62 0 12 8 18 24 18 27 0 56 33 56 62 0
12 8 18 24 18 27 0 56 33 56 62 0 12 8 18 24 18 28 0 42 14 51 53 5 19 13 27
30 27 27 0 41 15 50 53 5 19 13 27 30 27 27 0 41 15 50 53 5 19 13 27 30 27
26 0 41 15 50 52 5 19 14 28 33 30 19 2 32 13 43 38 10 21 26 37 40 40 14 4
31 20 40 40 10 21 26 37 40 40 14 4 31 20 40 40 10 21 26 37 40 40 14 4 31 20
40 40 10 21 26 37 40 40 14 4 31 20 40 40 10 21 26 37 40 40 14 4 31 20 40 40
10 21 26 37 40 40 14 4 31 20 40 40 10 21 26 37 40 40 14 4 31 20 40 40 10 21
26 37 40 40 14 4 31 20 40 40 10 20 26 37 39 40 13 3 27 13 32 23 4 9 12 25
16 34 5 10 19 20 32 23 13 3 27 13 32 23 4 9 12 25 16 34 5 10 19 20 32 23 13
3 26 12 30 20 21 46 29 55 50 60 13 3 26 12 30 20 21 46 29 55 50 60 13 3 27
13 32 23 4 9 12 25 16 34 5 10 19 20 32 23 13 3 26 12 30 20 21 46 29 55 50
60 13 3 27 13 32 23 4 9 12 25 16 34 5 10 19 20 32 23 13 3 27 13 32 23 4 9
12 25 16 34 5 10 19 20 32 23 13 3 27 13 32 23 4 9 12 25 16 34 5 10 19 20 32
23 13 3 27 13 32 23 4 9 12 25 16 34 5 10 19 20 32 23 13 3 27 13 32 23 4 9
12 25 17 35 4 9 17 19 27 21 28 5 44 21 44 42 0 12 14 25 37 36 23 11 39 27
43 42 3 14 19 30 40 40 20 9 36 26 40 40 3 14 19 30 40 40 20 9 36 26 40 40 3
14 19 30 40 40 20 9 36 26 40 40 3 14 19 30 40 40 20 9 36 26 40 40 3 14 19
30 40 40 20 9 36 26 40 40 3 14 19 30 40 40 20 9 36 26 40 40 3 14 19 30 40
40 20 9 36 26 40 40 3 14 19 30 40 40 20 9 36 26 40 40 3 14 19 30 40 40 20 9
36 26 40 40 3 14 19 30 40 40 21 10 36 25 40 40 3 14 19 32 35 41 17 9 34 26
40 38 5 12 19 22 30 22 12 0 31 9 43 20 12 11 29 20 40 20 12 0 25 16 39 50
12 27 17 52 13 55 -5 3 -1607 7 -3561 8 -2707 1 -3553 -1 -3556 -10z"/>
<path d="M18261 14689 c-8 -24 -15 -30 -30 -26 -25 6 -36 -2 -48 -38 -6 -19
-18 -31 -34 -35 -14 -3 -31 -19 -41 -40 -12 -23 -28 -38 -46 -42 -20 -5 -30
-17 -37 -40 -8 -24 -18 -34 -40 -40 -23 -5 -33 -16 -40 -40 -8 -24 -18 -34
-40 -40 -23 -5 -33 -16 -40 -40 -8 -24 -18 -34 -40 -40 -23 -5 -33 -16 -40
-40 -8 -24 -18 -34 -40 -40 -23 -6 -33 -16 -40 -40 -7 -22 -18 -34 -35 -38
-16 -4 -31 -19 -41 -40 -10 -21 -26 -37 -40 -40 -14 -4 -31 -20 -40 -40 -10
-21 -26 -37 -40 -40 -14 -4 -31 -20 -40 -40 -10 -21 -26 -37 -40 -40 -14 -4
-31 -20 -40 -40 -10 -21 -26 -37 -40 -40 -14 -4 -31 -20 -40 -40 -10 -21 -26
-37 -40 -40 -14 -4 -31 -20 -40 -40 -10 -21 -26 -37 -40 -40 -14 -4 -31 -20
-40 -40 -10 -21 -26 -37 -40 -40 -14 -4 -31 -20 -40 -40 -10 -21 -26 -37 -40
-40 -14 -4 -31 -20 -40 -40 -10 -21 -26 -37 -40 -40 -15 -4 -31 -20 -42 -43
-11 -23 -24 -37 -36 -37 -21 0 -37 -16 -42 -44 -2 -10 -11 -22 -19 -26 -46
-21 -55 -29 -60 -50 -3 -13 -13 -27 -23 -32 -9 -4 -25 -12 -34 -16 -10 -5 -20
-19 -23 -32 -5 -21 -14 -29 -60 -50 -8 -4 -17 -17 -20 -30 -5 -21 -14 -29 -60
-50 -8 -4 -17 -17 -20 -30 -3 -13 -20 -29 -40 -39 -20 -9 -36 -26 -40 -40 -3
-14 -19 -30 -40 -40 -20 -9 -36 -26 -40 -40 -3 -14 -19 -30 -40 -40 -20 -9
-36 -26 -40 -40 -3 -14 -19 -30 -40 -40 -20 -9 -36 -26 -40 -40 -3 -14 -19
-30 -40 -40 -21 -10 -36 -25 -40 -41 -4 -17 -16 -28 -39 -35 -24 -7 -34 -17
-38 -38 -4 -20 -16 -33 -41 -45 -22 -10 -38 -26 -42 -41 -3 -14 -19 -30 -40
-40 -20 -9 -36 -26 -40 -40 -3 -14 -19 -30 -40 -40 -20 -9 -36 -26 -40 -40 -3
-14 -19 -30 -40 -40 -20 -9 -36 -26 -40 -40 -3 -14 -19 -30 -40 -40 -20 -9
-36 -26 -40 -40 -3 -14 -19 -30 -40 -40 -20 -9 -36 -26 -40 -40 -3 -14 -19
-30 -40 -40 -20 -9 -36 -26 -40 -40 -3 -14 -19 -30 -40 -40 -20 -9 -36 -26
-40 -40 -3 -14 -19 -30 -40 -40 -19 -9 -37 -26 -40 -39 -3 -12 -20 -30 -40
-40 -19 -9 -37 -27 -40 -40 -3 -12 -20 -30 -40 -40 -19 -9 -37 -27 -40 -40 -3
-12 -20 -30 -40 -40 -19 -9 -37 -27 -40 -40 -3 -12 -20 -30 -40 -40 -19 -9
-37 -27 -40 -40 -3 -12 -20 -30 -40 -40 -19 -9 -37 -27 -40 -40 -3 -12 -20
-30 -40 -40 -19 -9 -37 -27 -40 -40 -3 -12 -20 -30 -40 -40 -19 -9 -37 -27
-40 -40 -3 -12 -20 -30 -40 -40 -19 -9 -37 -27 -40 -40 -3 -12 -20 -30 -40
-40 -19 -9 -37 -27 -40 -40 -3 -12 -20 -30 -40 -40 -21 -10 -37 -27 -40 -42
-4 -15 -14 -26 -27 -28 -25 -4 -50 -29 -55 -57 -2 -11 -13 -21 -25 -23 -25 -4
-50 -29 -55 -57 -2 -11 -13 -21 -25 -23 -25 -4 -50 -29 -55 -57 -2 -11 -13
-21 -25 -23 -25 -4 -50 -29 -55 -57 -2 -11 -13 -21 -25 -23 -25 -4 -50 -29
-55 -57 -2 -11 -13 -21 -25 -23 -25 -4 -50 -29 -55 -57 -2 -11 -13 -21 -25
-23 -25 -4 -50 -29 -55 -57 -2 -11 -13 -21 -25 -23 -25 -4 -50 -29 -55 -57 -2
-11 -13 -21 -25 -23 -25 -4 -50 -29 -55 -57 -2 -11 -13 -21 -25 -23 -25 -4
-50 -29 -55 -57 -2 -11 -13 -21 -25 -23 -25 -4 -50 -29 -55 -57 -2 -11 -13
-21 -25 -23 -25 -4 -50 -29 -55 -57 -2 -11 -13 -21 -25 -23 -25 -4 -49 -29
-55 -57 -2 -11 -14 -22 -28 -25 -15 -3 -32 -19 -42 -40 -10 -20 -28 -37 -40
-40 -13 -3 -31 -21 -40 -40 -10 -20 -28 -37 -40 -40 -13 -3 -31 -21 -40 -40
-10 -20 -28 -37 -40 -40 -13 -3 -31 -21 -40 -40 -10 -20 -28 -37 -40 -40 -13
-3 -31 -21 -40 -40 -10 -20 -28 -37 -40 -40 -13 -3 -31 -21 -40 -40 -10 -20
-28 -37 -40 -40 -13 -3 -31 -21 -40 -40 -10 -20 -28 -37 -40 -40 -13 -3 -31
-21 -40 -40 -10 -20 -28 -37 -40 -40 -13 -3 -31 -21 -40 -40 -10 -20 -28 -37
-40 -40 -13 -3 -31 -21 -40 -40 -10 -20 -28 -37 -40 -40 -13 -3 -31 -21 -40
-40 -12 -23 -28 -38 -46 -42 -20 -5 -30 -17 -37 -40 -8 -24 -18 -34 -40 -40
-23 -5 -33 -16 -40 -40 -8 -24 -18 -34 -40 -40 -23 -5 -33 -16 -40 -40 -8 -24
-18 -34 -40 -40 -23 -5 -33 -16 -40 -40 -8 -24 -18 -34 -40 -40 -23 -6 -33
-16 -40 -40 -7 -22 -18 -34 -35 -38 -16 -4 -31 -19 -41 -40 -10 -21 -26 -37
-40 -40 -14 -4 -31 -20 -40 -40 -10 -21 -26 -37 -40 -40 -14 -4 -31 -20 -40
-40 -10 -21 -26 -37 -40 -40 -14 -4 -31 -20 -40 -40 -10 -21 -26 -37 -40 -40
-14 -4 -31 -20 -40 -40 -10 -21 -26 -37 -40 -40 -15 -4 -31 -20 -41 -42 -11
-23 -26 -38 -43 -42 -15 -4 -30 -17 -35 -31 -6 -17 -17 -25 -33 -25 -12 0 -31
-6 -42 -14 -11 -7 -33 -16 -48 -20 -17 -4 -31 -16 -37 -31 -5 -14 -15 -25 -22
-25 -7 0 -30 -9 -51 -20 -20 -11 -45 -20 -55 -20 -10 0 -25 -9 -35 -20 -9 -11
-25 -20 -36 -20 -22 0 -108 -37 -116 -50 -9 -15 -88 -22 -119 -11 -17 7 -33 8
-40 2 -6 -5 -35 -14 -64 -20 -63 -13 -122 -37 -122 -49 0 -13 41 -47 80 -67
20 -11 62 -19 99 -21 66 -3 84 -8 189 -56 47 -22 73 -28 107 -24 56 5 157 -16
235 -49 60 -25 145 -33 430 -39 68 -1 103 -11 136 -38 7 -5 1275 -8 3053 -8
3020 0 3041 0 3061 20 26 26 37 25 46 -2 5 -18 8 -19 15 -6 8 15 14 7237 5
7245 -2 2 -9 -10 -15 -28z m-11 -3613 c0 -2357 -3 -3547 -10 -3551 -6 -3 -15
6 -20 20 -13 33 -9 7032 4 7058 4 9 12 17 17 17 5 0 9 -1471 9 -3544z"/>
<path d="M29087 12390 c-3 -30 -8 -141 -11 -247 -3 -155 -1 -193 10 -197 7 -3
17 0 20 6 10 15 5 413 -5 458 -8 34 -8 34 -14 -20z"/>
<path d="M29004 11555 c-4 -22 -8 -65 -8 -95 -1 -44 2 -55 17 -58 15 -3 17 5
16 75 0 43 -4 87 -9 98 -6 17 -9 13 -16 -20z"/>
<path d="M28925 11208 c-3 -13 -6 -45 -8 -73 -2 -40 1 -50 16 -53 15 -3 17 5
17 67 0 69 -14 103 -25 59z"/>
<path d="M28840 10901 c-14 -35 -8 -61 15 -61 10 0 15 10 15 33 0 50 -15 64
-30 28z"/>
<path d="M28760 10660 c-10 -29 -10 -44 -3 -51 17 -17 33 -1 33 34 0 54 -15
62 -30 17z"/>
<path d="M28677 10480 c-5 -20 15 -45 26 -33 4 3 7 17 7 30 0 28 -26 31 -33 3z"/>
<path d="M28606 10333 c-12 -13 -6 -53 9 -53 9 0 15 9 15 24 0 26 -12 40 -24
29z"/>
<path d="M28530 10149 c0 -5 5 -7 10 -4 6 3 10 8 10 11 0 2 -4 4 -10 4 -5 0
-10 -5 -10 -11z"/>
<path d="M28445 9999 c-10 -15 3 -25 16 -12 7 7 7 13 1 17 -6 3 -14 1 -17 -5z"/>
<path d="M28365 9841 c-3 -5 -1 -12 5 -16 5 -3 10 1 10 9 0 18 -6 21 -15 7z"/>
<path d="M28047 9363 c-4 -3 -7 -11 -7 -17 0 -6 5 -5 12 2 6 6 9 14 7 17 -3 3
-9 2 -12 -2z"/>
<path d="M27240 8560 c0 -5 5 -10 10 -10 6 0 10 5 10 10 0 6 -4 10 -10 10 -5
0 -10 -4 -10 -10z"/>
</g>
</svg>
