<?xml version="1.0" standalone="no"?>
<!DOCTYPE svg PUBLIC "-//W3C//DTD SVG 20010904//EN"
 "http://www.w3.org/TR/2001/REC-SVG-20010904/DTD/svg10.dtd">
<svg version="1.0" xmlns="http://www.w3.org/2000/svg"
 width="679.000000pt" height="679.000000pt" viewBox="0 0 679.000000 679.000000"
 preserveAspectRatio="xMidYMid meet">

<g transform="translate(0.000000,679.000000) scale(0.100000,-0.100000)"
fill="#000000" stroke="none">
<path d="M148 6780 c-51 -15 -94 -49 -118 -92 l-25 -43 0 -3250 0 -3250 27
-45 c16 -28 43 -55 70 -70 l43 -25 3250 0 3250 0 45 27 c28 16 55 43 70 70
l25 43 0 3250 0 3250 -25 43 c-15 27 -42 54 -70 70 l-45 27 -3235 2 c-1779 1
-3247 -2 -3262 -7z m3504 -1329 c556 -96 1024 -503 1196 -1041 59 -186 67
-245 67 -485 -1 -202 -3 -229 -27 -330 -170 -716 -777 -1207 -1493 -1207 -766
0 -1414 573 -1516 1339 -17 128 -6 413 20 528 75 325 216 574 454 802 211 202
488 342 777 393 147 26 372 26 522 1z"/>
<path d="M2708 3990 c-69 -17 -162 -72 -224 -132 -140 -134 -189 -328 -129
-515 46 -145 111 -213 205 -213 54 0 97 24 136 77 49 65 148 157 200 185 27
15 87 39 132 53 91 29 155 72 184 125 46 84 -3 245 -101 332 -79 70 -139 92
-261 95 -58 1 -122 -2 -142 -7z"/>
<path d="M3813 3982 c-142 -51 -241 -175 -250 -312 -3 -51 0 -73 15 -100 29
-53 93 -96 184 -125 45 -14 105 -38 132 -53 52 -28 151 -120 200 -185 39 -53
82 -77 136 -77 93 0 151 59 202 204 85 246 -28 509 -268 623 -72 34 -85 37
-188 40 -89 3 -121 0 -163 -15z"/>
<path d="M3292 3210 c-169 -36 -194 -178 -44 -248 48 -22 71 -27 147 -27 77 0
98 4 147 27 128 60 131 183 6 233 -50 20 -194 28 -256 15z"/>
</g>
</svg>
