<svg width="251" height="227" viewBox="0 0 251 227" fill="none" xmlns="http://www.w3.org/2000/svg">
<g clip-path="url(#clip0_5687_28362)">
<path d="M85.9001 28.6003C88.3001 22.3003 91.6001 16.5003 96.5001 11.8003C116.1 -7.29973 148.5 -2.49973 161.8 21.5003C171.8 39.7003 182.4 57.5003 192.7 75.5003C209.9 105.4 227.3 135.3 244.3 165.3C258.6 190.4 243.1 222.1 214.7 226.4C197.3 229 181 221 172 205.4C156.9 179.1 141.7 152.8 126.6 126.6C126.3 126 125.9 125.5 125.5 125C123.9 123.7 123.2 121.8 122.2 120.1C115.5 108.3 108.6 96.6003 101.9 84.9003C97.6001 77.3003 93.1001 69.8003 88.8001 62.2003C84.9001 55.4003 83.1001 48.0003 83.3001 40.2003C83.6001 36.2003 84.1001 32.2003 85.9001 28.6003Z" fill="#3C8BD9"/>
<path d="M85.9004 28.6006C85.0004 32.2006 84.2004 35.8006 84.0004 39.6006C83.7004 48.0006 85.8004 55.8006 90.0004 63.1006C101 82.0006 112 101.001 122.9 120.001C123.9 121.701 124.7 123.401 125.7 125.001C119.7 135.401 113.7 145.701 107.6 156.101C99.2004 170.601 90.8004 185.201 82.3004 199.701C81.9004 199.701 81.8004 199.501 81.7004 199.201C81.6004 198.401 81.9004 197.701 82.1004 196.901C86.2004 181.901 82.8004 168.601 72.5004 157.201C66.2004 150.301 58.2004 146.401 49.0004 145.101C37.0004 143.401 26.4004 146.501 16.9004 154.001C15.2004 155.301 14.1004 157.201 12.1004 158.201C11.7004 158.201 11.5004 158.001 11.4004 157.701C16.2004 149.401 20.9004 141.101 25.7004 132.801C45.5004 98.4006 65.3004 64.0006 85.2004 29.7006C85.4004 29.3006 85.7004 29.0006 85.9004 28.6006Z" fill="#FABC04"/>
<path d="M11.8001 158.001C13.7001 156.301 15.5001 154.501 17.5001 152.901C41.8001 133.701 78.3001 147.601 83.6001 178.001C84.9001 185.301 84.2001 192.301 82.0001 199.301C81.9001 199.901 81.8001 200.401 81.6001 201.001C80.7001 202.601 79.9001 204.301 78.9001 205.901C70.0001 220.601 56.9001 227.901 39.7001 226.801C20.0001 225.401 4.50013 210.601 1.80013 191.001C0.50013 181.501 2.40013 172.601 7.30013 164.401C8.30013 162.601 9.50013 161.001 10.6001 159.201C11.1001 158.801 10.9001 158.001 11.8001 158.001Z" fill="#34A852"/>
<path d="M11.7991 158.001C11.3991 158.401 11.3991 159.101 10.6991 159.201C10.5991 158.501 10.9991 158.101 11.3991 157.601L11.7991 158.001Z" fill="#FABC04"/>
<path d="M81.5993 201C81.1993 200.3 81.5993 199.8 81.9993 199.3C82.0993 199.4 82.2993 199.6 82.3993 199.7L81.5993 201Z" fill="#E1C025"/>
</g>
<defs>
<clipPath id="clip0_5687_28362">
<rect width="251" height="227" fill="white"/>
</clipPath>
</defs>
</svg>
