<?xml version="1.0" standalone="no"?>
<!DOCTYPE svg PUBLIC "-//W3C//DTD SVG 20010904//EN"
 "http://www.w3.org/TR/2001/REC-SVG-20010904/DTD/svg10.dtd">
<svg version="1.0" xmlns="http://www.w3.org/2000/svg"
 width="512.000000pt" height="512.000000pt" viewBox="0 0 512.000000 512.000000"
 preserveAspectRatio="xMidYMid meet">

<g transform="translate(0.000000,512.000000) scale(0.100000,-0.100000)"
fill="#000000" stroke="none">
<path d="M0 2560 l0 -2560 2560 0 2560 0 0 2560 0 2560 -2560 0 -2560 0 0
-2560z m852 333 l3 -228 121 -3 121 -3 212 231 212 230 119 0 c110 0 120 -2
120 -18 0 -11 -106 -135 -235 -278 -129 -142 -233 -262 -232 -266 1 -3 107
-122 235 -263 127 -141 232 -263 232 -271 0 -11 -23 -14 -124 -14 l-123 0
-208 225 -207 226 -122 -3 -121 -3 -3 -222 -2 -223 -100 0 -100 0 0 555 0 555
100 0 100 0 2 -227z m1464 -208 c129 -236 237 -431 241 -432 5 -1 114 192 243
430 l235 432 118 3 c73 2 118 -1 115 -7 -1 -5 -138 -255 -303 -555 l-300 -546
-108 3 -109 2 -295 535 c-163 294 -298 543 -301 553 -4 16 4 17 113 15 l118
-3 233 -430z m2026 402 c31 -15 68 -43 82 -62 55 -72 56 -80 56 -566 l0 -449
-105 0 -105 0 0 438 c0 327 -3 441 -12 450 -16 16 -650 17 -679 2 -18 -10 -19
-26 -19 -450 l0 -440 -105 0 -105 0 0 548 c0 302 3 552 7 556 4 4 215 6 468 4
l460 -3 57 -28z"/>
</g>
</svg>
