<?xml version="1.0" standalone="no"?>
<!DOCTYPE svg PUBLIC "-//W3C//DTD SVG 20010904//EN"
 "http://www.w3.org/TR/2001/REC-SVG-20010904/DTD/svg10.dtd">
<svg version="1.0" xmlns="http://www.w3.org/2000/svg"
 width="600.000000pt" height="600.000000pt" viewBox="0 0 600.000000 600.000000"
 preserveAspectRatio="xMidYMid meet">

<g transform="translate(0.000000,600.000000) scale(0.100000,-0.100000)"
fill="#000000" stroke="none">
<path d="M2322 3773 c3 -464 3 -468 26 -510 48 -92 132 -153 225 -166 l37 -6
0 73 0 74 -30 5 c-44 9 -99 65 -110 112 -5 22 -10 230 -10 463 l0 422 -70 0
-71 0 3 -467z"/>
<path d="M2720 3665 l0 -575 69 0 69 0 4 253 c3 290 7 303 88 345 73 38 141
19 194 -52 20 -26 21 -43 24 -287 l3 -260 72 3 72 3 0 255 c0 225 -2 261 -19
310 -25 72 -102 150 -170 173 -60 21 -157 21 -211 2 -22 -8 -43 -15 -47 -15
-5 0 -8 95 -8 210 l0 210 -70 0 -70 0 0 -575z"/>
<path d="M493 3833 c-61 -21 -136 -92 -164 -155 -23 -51 -24 -63 -27 -320 l-3
-268 75 0 76 0 0 250 c0 275 2 284 60 333 17 15 46 29 66 33 48 9 118 -19 146
-59 22 -31 23 -42 28 -292 l5 -260 73 -3 72 -3 0 254 c0 247 1 255 23 287 50
74 115 95 190 62 80 -36 81 -40 87 -337 l5 -260 73 -3 72 -3 0 254 c0 298 -6
328 -76 407 -60 66 -111 92 -196 98 -84 6 -147 -11 -205 -55 -51 -39 -54 -39
-79 -12 -10 12 -41 32 -69 45 -59 28 -165 31 -232 7z"/>
<path d="M1719 3832 c-112 -38 -198 -120 -240 -230 -17 -47 -20 -73 -17 -148
5 -116 34 -180 118 -257 78 -73 147 -100 255 -100 105 0 176 27 250 95 l55 50
-57 43 -57 43 -31 -25 c-79 -68 -175 -81 -264 -37 -51 26 -111 91 -111 121 0
11 54 13 296 13 l296 0 -4 88 c-3 68 -10 99 -32 144 -80 169 -283 257 -457
200z m243 -168 c45 -31 91 -90 85 -108 -5 -15 -427 -21 -427 -6 0 20 28 65 57
92 46 44 90 59 170 55 61 -2 78 -7 115 -33z"/>
<path d="M3700 3841 c-187 -60 -304 -246 -271 -427 31 -166 151 -286 317 -315
158 -28 323 60 401 211 25 50 28 65 28 160 0 99 -2 110 -32 171 -39 79 -102
140 -181 177 -47 22 -74 27 -147 29 -49 1 -101 -1 -115 -6z m168 -143 c64 -16
143 -94 161 -161 39 -140 -60 -283 -205 -295 -100 -8 -188 42 -230 133 -59
127 2 274 133 321 48 17 82 17 141 2z"/>
<path d="M4463 3826 c-68 -32 -127 -95 -153 -162 -18 -50 -20 -77 -20 -315 l0
-260 73 3 72 3 5 260 c5 251 6 261 28 292 15 21 40 39 73 50 l49 18 0 67 0 68
-37 0 c-21 0 -61 -11 -90 -24z"/>
<path d="M2963 2929 c-90 -17 -164 -71 -208 -151 l-30 -53 -3 -272 -3 -271 70
-4 70 -3 3 250 c3 229 5 253 23 284 64 108 212 106 265 -4 18 -38 20 -62 20
-282 l0 -241 71 -4 c50 -2 73 1 76 9 3 7 3 126 2 265 l-4 253 -28 57 c-61 124
-193 192 -324 167z"/>
<path d="M4849 2930 c-110 -19 -236 -116 -280 -214 -83 -189 -5 -409 180 -502
51 -27 65 -29 166 -29 104 0 113 2 170 31 156 82 236 246 200 415 -8 39 -25
90 -39 113 -56 95 -164 169 -273 186 -64 11 -59 11 -124 0z m189 -177 c28 -17
59 -48 77 -77 26 -43 30 -59 30 -121 0 -62 -4 -78 -30 -121 -19 -30 -49 -60
-79 -79 -43 -26 -59 -30 -121 -30 -62 0 -78 4 -121 30 -65 41 -104 105 -111
184 -17 187 193 314 355 214z"/>
<path d="M2140 2915 c-75 -22 -130 -56 -183 -115 -64 -71 -90 -143 -91 -251
-1 -82 1 -91 39 -165 47 -92 110 -149 202 -184 48 -18 73 -21 149 -18 108 5
175 32 242 101 l44 44 -58 41 -58 42 -26 -25 c-85 -82 -220 -85 -310 -7 -35
29 -70 78 -70 97 0 3 132 5 294 5 l293 0 6 35 c8 50 -8 137 -37 200 -71 156
-269 246 -436 200z m196 -154 c45 -20 114 -95 114 -123 0 -17 -14 -18 -209
-18 -116 0 -212 4 -215 9 -3 4 7 28 23 53 55 87 188 124 287 79z"/>
<path d="M3430 2923 c0 -4 68 -173 152 -376 l153 -367 70 2 69 3 153 365 c84
201 153 368 153 373 0 13 -147 8 -157 -5 -6 -7 -56 -129 -113 -271 -56 -142
-105 -255 -108 -252 -4 3 -54 124 -112 268 l-105 262 -77 3 c-43 2 -78 -1 -78
-5z"/>
<path d="M4280 2555 l0 -375 75 0 75 0 0 375 0 375 -75 0 -75 0 0 -375z"/>
</g>
</svg>
