<?xml version="1.0" standalone="no"?>
<!DOCTYPE svg PUBLIC "-//W3C//DTD SVG 20010904//EN"
 "http://www.w3.org/TR/2001/REC-SVG-20010904/DTD/svg10.dtd">
<svg version="1.0" xmlns="http://www.w3.org/2000/svg"
 width="458.000000pt" height="326.000000pt" viewBox="0 0 458.000000 326.000000"
 preserveAspectRatio="xMidYMid meet">

<g transform="translate(0.000000,326.000000) scale(0.100000,-0.100000)"
fill="#000000" stroke="none">
<path d="M2085 3214 c-33 -2 -123 -11 -200 -20 -996 -110 -1760 -651 -1856
-1313 -15 -106 -7 -369 15 -469 114 -526 546 -942 1201 -1157 623 -206 1438
-203 2072 7 672 222 1114 679 1193 1233 14 103 12 320 -5 416 -113 649 -862
1169 -1845 1283 -135 16 -463 27 -575 20z m420 -94 c501 -38 966 -182 1308
-406 l101 -66 -73 -30 c-165 -65 -402 -106 -541 -93 -157 15 -333 61 -435 113
-71 35 -245 92 -333 107 -228 40 -452 -3 -633 -121 -62 -40 -93 -54 -120 -54
-20 0 -101 -17 -180 -37 -198 -51 -275 -51 -489 5 -154 40 -440 129 -440 137
0 11 200 126 315 181 433 207 988 303 1520 264z m84 -479 c46 -12 149 -49 228
-82 169 -71 289 -103 438 -119 188 -21 404 13 615 95 52 20 104 39 115 41 16
4 44 -18 121 -98 107 -110 195 -234 244 -341 31 -69 75 -215 67 -223 -3 -3
-82 -25 -177 -50 -200 -51 -473 -141 -646 -212 l-120 -49 -65 56 c-36 31 -191
164 -345 297 -349 300 -469 396 -547 437 -56 28 -71 32 -148 32 -78 0 -91 -3
-160 -37 -40 -21 -124 -77 -186 -125 -162 -128 -210 -154 -285 -160 -70 -6
-135 8 -169 36 l-22 18 116 125 c184 198 255 258 379 320 140 69 361 85 547
39z m-1830 -92 c312 -107 556 -159 677 -144 29 3 102 19 161 36 59 16 112 29
116 29 5 0 -48 -61 -117 -135 -116 -125 -126 -139 -126 -174 0 -50 26 -82 92
-112 45 -20 69 -24 158 -24 125 0 151 11 297 124 173 133 279 191 352 191 48
0 116 -26 177 -67 130 -89 897 -751 919 -793 32 -62 8 -127 -60 -160 -47 -23
-88 -25 -127 -7 -14 7 -101 80 -193 162 -92 83 -173 154 -181 158 -21 12 -44
1 -44 -19 0 -10 77 -95 170 -189 165 -167 170 -173 170 -213 0 -52 -42 -104
-105 -128 -78 -29 -101 -18 -243 118 -70 66 -137 127 -149 135 -25 17 -53 11
-53 -10 0 -7 52 -71 116 -142 64 -72 121 -140 126 -152 16 -33 2 -69 -38 -100
-28 -21 -47 -27 -88 -27 l-52 -1 -112 105 c-123 114 -136 124 -158 116 -28
-11 -13 -37 81 -138 52 -57 95 -109 95 -115 0 -22 -57 -43 -114 -43 -32 0 -79
9 -112 21 -49 19 -55 24 -49 43 14 44 17 123 6 163 -25 91 -133 183 -216 183
-32 0 -32 1 -43 67 -22 131 -103 197 -241 198 -73 0 -74 0 -115 42 -70 70
-192 91 -279 48 -38 -19 -51 -19 -68 1 -25 30 -87 54 -141 54 -52 0 -129 -27
-142 -49 -5 -7 -25 0 -59 20 -147 86 -377 170 -668 244 -241 60 -249 63 -249
84 0 29 46 155 87 236 53 107 145 225 258 333 52 51 99 92 102 92 4 0 85 -27
182 -61z m-441 -765 c252 -62 470 -135 605 -203 104 -52 112 -58 107 -81 -30
-149 55 -270 201 -287 46 -5 51 -9 65 -41 25 -62 62 -99 125 -131 43 -22 77
-31 109 -31 44 0 49 -3 73 -39 37 -56 122 -96 202 -95 60 1 61 0 85 -38 73
-115 248 -148 358 -68 l40 29 63 -27 c53 -22 79 -27 154 -27 81 0 95 3 138 28
26 15 47 32 47 37 0 6 29 10 65 10 36 0 81 6 99 14 47 20 113 82 127 119 11
30 14 32 66 33 108 3 224 92 239 183 l6 38 57 6 c158 14 260 154 207 282 -18
42 -29 35 154 103 191 71 507 165 694 207 l29 6 -6 -113 c-12 -230 -104 -442
-276 -631 -371 -409 -993 -662 -1714 -696 -898 -43 -1726 263 -2119 783 -74
98 -151 253 -179 361 -24 95 -39 315 -20 315 6 0 96 -21 199 -46z m993 -229
c37 -19 69 -70 69 -109 l0 -29 43 46 c23 25 55 50 70 56 41 16 123 13 158 -4
34 -18 69 -69 69 -103 0 -32 25 -38 56 -13 39 30 87 36 139 16 86 -32 117
-104 91 -206 -17 -63 -10 -76 35 -60 67 23 132 10 183 -37 128 -120 16 -331
-159 -298 -66 13 -135 94 -135 160 0 37 -15 40 -57 11 -22 -14 -52 -25 -71
-25 -77 0 -152 62 -152 126 0 42 -17 51 -59 30 -61 -32 -129 -16 -184 41 -32
34 -47 80 -47 140 0 24 -2 43 -5 43 -2 0 -19 -9 -37 -20 -64 -39 -148 -20
-187 43 -73 118 56 256 180 192z"/>
</g>
</svg>
