<?xml version="1.0" standalone="no"?>
<!DOCTYPE svg PUBLIC "-//W3C//DTD SVG 20010904//EN"
 "http://www.w3.org/TR/2001/REC-SVG-20010904/DTD/svg10.dtd">
<svg version="1.0" xmlns="http://www.w3.org/2000/svg"
 width="911.000000pt" height="629.000000pt" viewBox="0 0 911.000000 629.000000"
 preserveAspectRatio="xMidYMid meet">

<g transform="translate(0.000000,629.000000) scale(0.100000,-0.100000)"
fill="#000000" stroke="none">
<path d="M4260 6269 c-1857 -79 -3460 -897 -4026 -2054 -114 -233 -176 -442
-205 -688 -18 -159 -6 -653 20 -797 48 -261 116 -467 232 -700 140 -281 304
-505 544 -745 561 -562 1364 -957 2338 -1150 881 -174 1919 -174 2807 1 964
190 1770 586 2331 1144 430 428 696 936 780 1492 26 171 36 525 20 698 -25
268 -90 499 -210 745 -451 922 -1575 1646 -2991 1929 -360 72 -678 109 -1070
126 -267 11 -297 11 -570 -1z m920 -193 c707 -71 1326 -227 1889 -478 260
-115 555 -282 755 -427 l69 -50 -45 -20 c-249 -106 -573 -194 -820 -220 -125
-14 -371 -14 -496 0 -249 27 -550 113 -802 229 -239 110 -525 194 -754 221
-125 15 -431 6 -544 -15 -270 -50 -479 -139 -680 -289 -69 -52 -74 -54 -152
-61 -118 -10 -220 -30 -450 -91 -113 -30 -241 -59 -286 -64 -197 -24 -492 31
-1037 194 -220 66 -507 165 -507 174 0 4 48 39 108 78 712 467 1663 761 2692
833 200 14 869 5 1060 -14z m-60 -941 c148 -31 382 -108 506 -165 263 -123
492 -195 760 -242 112 -19 164 -22 394 -22 231 0 282 3 400 23 254 43 538 128
764 227 l99 44 56 -48 c325 -277 606 -675 729 -1032 41 -119 78 -267 69 -276
-3 -3 -70 -21 -149 -39 -528 -124 -1178 -336 -1642 -535 l-111 -47 -31 26
c-17 14 -206 177 -420 362 -753 652 -1144 979 -1316 1102 -109 78 -229 140
-313 162 -83 21 -215 19 -311 -5 -160 -41 -280 -112 -569 -340 -200 -157 -323
-240 -403 -271 -49 -20 -76 -23 -197 -24 -161 0 -233 16 -290 66 -30 27 -33
34 -23 52 16 32 364 401 509 542 258 249 468 373 739 434 151 35 213 40 425
36 169 -3 219 -7 325 -30z m-3809 -135 c398 -152 993 -319 1244 -350 50 -7
146 -12 215 -12 136 0 201 11 460 81 80 22 163 43 185 47 l40 7 -60 -64 c-232
-246 -413 -446 -432 -477 -45 -73 -23 -175 52 -240 82 -73 234 -121 405 -129
237 -11 351 40 685 302 443 347 641 409 902 278 137 -69 358 -247 1158 -934
710 -609 786 -677 814 -732 36 -71 35 -156 -2 -219 -30 -52 -92 -100 -159
-124 -61 -22 -166 -20 -220 4 -27 11 -126 93 -253 209 -330 298 -485 431 -514
441 -42 15 -71 -1 -71 -40 0 -29 32 -64 319 -352 210 -212 327 -336 342 -366
61 -120 -3 -258 -157 -335 -45 -22 -77 -30 -132 -33 -120 -7 -141 6 -332 192
-301 295 -373 356 -421 356 -35 0 -53 -28 -40 -63 5 -13 109 -135 231 -271
122 -137 230 -262 241 -280 87 -143 -114 -318 -319 -276 -54 12 -63 18 -187
139 -163 159 -256 244 -308 282 -66 47 -128 32 -113 -27 4 -15 33 -54 65 -88
31 -34 119 -130 196 -214 l138 -153 -28 -29 c-56 -59 -200 -84 -320 -56 -70
16 -222 72 -229 85 -3 4 5 33 16 66 31 87 30 227 0 317 -46 132 -137 240 -254
299 -70 35 -157 59 -215 59 l-43 0 0 63 c-1 252 -155 425 -416 467 -60 10
-128 5 -204 -15 -21 -5 -28 -1 -45 30 -23 43 -104 119 -154 145 -156 79 -334
84 -479 15 l-74 -35 -46 41 c-59 53 -151 96 -232 111 -108 19 -241 -16 -335
-88 l-42 -32 -69 45 c-38 25 -127 73 -199 108 -320 156 -703 284 -1243 416
-232 57 -419 107 -434 115 -3 2 4 45 17 94 90 336 275 656 556 963 113 122
339 319 359 311 8 -3 72 -28 141 -54z m-896 -1550 c545 -126 901 -230 1205
-352 147 -60 340 -155 415 -205 49 -32 53 -37 45 -59 -20 -53 -29 -143 -19
-210 20 -142 119 -272 255 -336 57 -26 82 -32 165 -36 l98 -5 7 -31 c3 -17 22
-61 41 -98 90 -173 300 -291 483 -272 l55 5 24 -42 c79 -141 253 -241 421
-240 41 0 89 4 106 9 29 9 31 8 59 -45 37 -71 127 -161 201 -200 85 -45 156
-63 248 -63 129 0 230 35 328 112 l50 40 89 -41 c127 -59 224 -83 344 -84 156
-1 279 44 354 130 l38 42 68 -11 c52 -9 85 -9 138 0 161 28 333 164 372 294
l11 39 105 3 c118 3 177 21 276 85 123 79 200 192 210 310 l6 61 87 0 c142 0
253 43 350 136 32 30 69 78 83 108 49 100 52 242 7 344 -11 25 -17 49 -12 54
33 33 754 283 1117 387 218 62 643 171 669 171 36 0 28 -284 -14 -493 -183
-904 -1049 -1694 -2320 -2117 -1272 -423 -2804 -419 -4064 10 -667 227 -1190
532 -1605 935 -235 229 -393 439 -515 686 -154 310 -230 679 -200 968 6 50 10
61 23 57 9 -3 97 -23 196 -46z m2197 -514 c84 -41 146 -129 155 -222 3 -30 9
-54 13 -54 4 0 22 23 40 51 39 61 130 130 203 155 31 11 79 18 122 18 169 -1
276 -86 308 -245 9 -44 18 -65 29 -67 9 -2 39 15 68 36 61 46 107 62 182 62
120 0 242 -70 290 -168 31 -64 32 -216 0 -311 -32 -96 -17 -112 75 -79 38 14
84 21 133 22 64 0 85 -4 142 -31 78 -37 137 -92 174 -165 22 -42 28 -71 32
-138 5 -116 -20 -183 -97 -260 -84 -83 -135 -105 -251 -105 -82 0 -103 4 -152
27 -66 31 -137 98 -168 159 -12 23 -28 76 -35 117 -12 66 -24 91 -47 92 -3 0
-26 -16 -50 -36 -59 -50 -100 -66 -172 -65 -117 0 -269 103 -296 200 -5 20
-10 60 -10 89 0 38 -4 54 -15 59 -9 3 -49 -11 -89 -32 -61 -31 -83 -37 -135
-37 -117 0 -246 87 -299 200 -22 48 -27 74 -30 170 -3 81 -8 115 -17 118 -7 3
-33 -10 -58 -29 -109 -83 -264 -71 -361 29 -57 58 -71 98 -71 195 0 78 3 90
30 134 35 56 87 101 141 121 52 19 168 14 216 -10z"/>
</g>
</svg>
