<?xml version="1.0" standalone="no"?>
<!DOCTYPE svg PUBLIC "-//W3C//DTD SVG 20010904//EN"
 "http://www.w3.org/TR/2001/REC-SVG-20010904/DTD/svg10.dtd">
<svg version="1.0" xmlns="http://www.w3.org/2000/svg"
 width="2000.000000pt" height="1338.000000pt" viewBox="0 0 2000.000000 1338.000000"
 preserveAspectRatio="xMidYMid meet">

<g transform="translate(0.000000,1338.000000) scale(0.100000,-0.100000)"
fill="#000000" stroke="none">
<path d="M9675 9893 c-1738 -84 -3240 -776 -3936 -1813 -218 -324 -344 -667
-380 -1037 -15 -149 -6 -560 15 -698 70 -466 267 -913 572 -1295 100 -125 372
-393 509 -502 486 -384 1064 -662 1755 -842 507 -133 1021 -200 1630 -213
1971 -41 3600 622 4365 1777 215 326 343 652 406 1040 26 160 37 570 20 742
-25 260 -96 505 -217 747 -261 526 -719 981 -1352 1345 -857 492 -1966 763
-3089 754 -131 -1 -265 -3 -298 -5z m935 -197 c558 -52 1084 -165 1555 -333
263 -93 584 -239 800 -362 123 -70 425 -269 425 -279 0 -9 -184 -80 -330 -127
-278 -89 -520 -128 -800 -128 -362 -1 -678 68 -1025 223 -565 253 -992 316
-1454 213 -238 -52 -416 -133 -616 -279 l-70 -51 -135 -16 c-131 -16 -210 -33
-505 -113 -137 -37 -144 -38 -315 -38 -167 0 -182 1 -340 38 -255 58 -577 149
-839 235 -132 44 -249 85 -261 91 -21 11 -19 14 43 56 728 488 1705 802 2717
874 80 6 165 12 190 14 110 9 805 -4 960 -18z m-50 -961 c154 -32 392 -110
525 -171 424 -193 770 -274 1175 -274 372 0 715 72 1126 236 89 35 165 64 169
64 23 0 289 -261 393 -386 226 -271 390 -587 463 -889 23 -98 24 -115 3 -115
-30 0 -425 -100 -648 -165 -383 -110 -843 -271 -1147 -401 -69 -30 -130 -54
-136 -54 -6 0 -48 33 -94 73 -649 565 -1411 1212 -1599 1358 -255 198 -410
269 -586 269 -196 0 -372 -79 -642 -288 -386 -299 -468 -352 -589 -377 -131
-28 -278 -14 -380 36 -78 38 -90 57 -61 95 35 46 398 431 490 520 280 272 490
397 778 463 151 35 212 40 430 36 175 -3 223 -7 330 -30z m-3865 -147 c356
-134 888 -288 1145 -333 152 -26 336 -37 435 -25 49 6 194 38 322 70 127 33
238 60 247 60 9 0 -87 -111 -221 -256 -131 -140 -249 -273 -262 -295 -15 -26
-24 -56 -24 -88 -3 -166 224 -286 538 -286 119 1 137 3 215 31 105 37 226 112
395 245 283 221 458 329 595 364 96 25 213 17 312 -22 159 -63 294 -169 1123
-879 885 -758 907 -778 943 -845 57 -108 39 -217 -48 -292 -83 -71 -209 -98
-313 -68 -52 15 -51 14 -437 361 -351 315 -392 344 -428 308 -7 -7 -12 -25
-12 -42 0 -26 45 -75 334 -365 279 -282 336 -344 351 -384 48 -129 -40 -275
-205 -338 -44 -17 -71 -20 -135 -17 -46 3 -93 11 -110 20 -16 9 -131 114 -255
233 -251 242 -327 305 -371 305 -36 0 -53 -28 -39 -64 5 -14 49 -69 98 -123
221 -244 366 -410 383 -438 29 -46 25 -113 -10 -165 -33 -50 -97 -95 -155
-111 -53 -15 -162 -14 -201 1 -16 6 -100 80 -185 164 -219 216 -305 286 -346
286 -42 0 -62 -30 -45 -66 9 -21 233 -272 365 -411 l40 -43 -28 -29 c-58 -61
-213 -87 -339 -57 -73 17 -213 72 -222 87 -3 5 3 38 15 75 24 80 27 204 5 289
-53 203 -233 359 -447 387 l-88 12 0 71 c0 230 -130 392 -362 451 -60 16 -201
15 -268 -1 -22 -5 -29 1 -57 44 -61 94 -189 169 -329 191 -114 19 -243 -4
-344 -61 l-39 -22 -44 40 c-97 90 -203 128 -331 121 -97 -6 -171 -33 -242 -87
l-51 -38 -59 39 c-77 52 -348 184 -499 243 -262 104 -643 219 -1025 311 -279
67 -410 105 -410 118 0 7 13 59 29 117 120 425 402 840 804 1185 l109 93 51
-21 c29 -11 88 -34 132 -50z m-895 -1588 c643 -147 1089 -290 1421 -455 119
-59 239 -129 239 -139 0 -3 -7 -31 -15 -63 -29 -109 -15 -215 41 -324 19 -36
51 -82 72 -102 89 -86 234 -142 350 -135 l53 3 21 -60 c72 -214 287 -364 503
-353 l82 4 23 -44 c39 -72 124 -149 214 -192 106 -51 192 -66 286 -50 39 7 73
10 74 9 2 -2 16 -28 31 -57 37 -68 144 -169 217 -204 113 -55 233 -71 350 -47
70 14 183 69 233 112 l39 34 71 -33 c135 -62 222 -86 335 -91 58 -3 132 0 165
6 89 16 203 77 240 128 19 27 35 40 45 36 8 -3 54 -7 101 -10 70 -5 100 -2
156 15 82 25 170 81 235 148 45 47 98 137 98 166 0 11 21 14 98 15 115 0 189
22 287 84 67 42 155 130 181 181 25 47 44 119 44 164 l0 41 73 -5 c122 -8 255
37 354 119 112 92 168 236 144 373 -6 38 -20 90 -31 114 -16 36 -18 47 -8 54
20 12 254 104 416 162 394 142 1119 352 1385 401 l37 7 0 -142 c0 -543 -236
-1063 -689 -1519 -1113 -1119 -3268 -1601 -5239 -1170 -768 168 -1467 481
-2002 895 -129 100 -427 391 -515 503 -321 409 -485 849 -485 1296 0 142 7
187 29 181 9 -3 117 -28 241 -56z m2202 -511 c87 -45 141 -123 160 -230 l10
-58 44 59 c85 115 195 173 329 173 174 -1 285 -87 316 -245 14 -71 30 -87 61
-64 13 9 38 28 57 42 19 13 60 32 90 41 91 26 214 -3 306 -72 86 -64 116 -216
76 -375 -35 -139 -31 -144 89 -110 217 62 414 -50 467 -264 30 -125 -12 -253
-114 -346 -77 -70 -144 -93 -258 -88 -79 3 -98 8 -153 37 -106 57 -176 158
-189 273 -11 98 -34 111 -102 54 -60 -50 -119 -70 -189 -63 -116 10 -244 94
-277 181 -9 24 -17 69 -18 101 -2 68 -21 90 -59 66 -120 -75 -203 -84 -310
-34 -88 41 -141 92 -180 170 -29 59 -32 76 -36 180 -5 129 -14 144 -61 99 -90
-86 -259 -86 -360 0 -65 56 -93 113 -99 200 -4 68 -2 79 28 140 32 65 81 112
140 136 67 26 179 25 232 -3z"/>
</g>
</svg>
