<?xml version="1.0" standalone="no"?>
<!DOCTYPE svg PUBLIC "-//W3C//DTD SVG 20010904//EN"
 "http://www.w3.org/TR/2001/REC-SVG-20010904/DTD/svg10.dtd">
<svg version="1.0" xmlns="http://www.w3.org/2000/svg"
 width="2048.000000pt" height="2047.000000pt" viewBox="0 0 2048.000000 2047.000000"
 preserveAspectRatio="xMidYMid meet">

<g transform="translate(0.000000,2047.000000) scale(0.100000,-0.100000)"
fill="#000000" stroke="none">
<path d="M10 10235 l0 -10235 10235 0 10235 0 0 10235 0 10235 -10235 0
-10235 0 0 -10235z m12376 4625 c1059 -84 2015 -502 2809 -1230 407 -374 779
-875 1020 -1375 241 -500 374 -969 442 -1550 24 -212 24 -738 -1 -955 -76
-672 -258 -1240 -579 -1810 -347 -616 -875 -1184 -1467 -1577 -642 -426 -1349
-679 -2120 -757 -778 -80 -1610 53 -2317 368 -477 212 -897 487 -1276 834
l-98 90 -110 -45 c-303 -121 -709 -208 -1094 -233 -644 -43 -1371 124 -1944
446 -937 527 -1587 1417 -1796 2457 -84 421 -88 914 -10 1356 104 583 355
1131 742 1616 112 142 407 437 548 549 544 433 1157 688 1865 778 165 21 671
17 840 -5 313 -43 612 -118 874 -221 l89 -35 85 77 c396 362 818 637 1300 848
483 212 969 330 1547 377 99 8 534 6 651 -3z"/>
<path d="M11725 13823 c-552 -50 -1124 -242 -1595 -538 -117 -73 -382 -264
-394 -284 -3 -5 13 -26 37 -46 564 -497 942 -1111 1126 -1827 66 -256 97 -462
108 -731 5 -131 4 -160 -8 -168 -18 -11 -989 -12 -1007 0 -10 6 -16 52 -23
152 -21 325 -95 625 -226 915 -130 290 -307 539 -549 774 -332 322 -718 540
-1159 655 -331 87 -776 98 -1129 30 -868 -168 -1604 -791 -1915 -1620 -253
-672 -218 -1395 99 -2040 296 -603 795 -1051 1435 -1288 367 -137 785 -182
1195 -131 119 15 349 61 371 74 9 6 7 17 -11 47 -265 441 -449 882 -560 1338
-72 298 -130 748 -130 1018 l0 77 518 0 519 0 7 -157 c58 -1319 821 -2487
2011 -3080 369 -184 795 -307 1226 -355 147 -16 581 -16 729 1 1009 110 1908
618 2511 1416 412 546 663 1198 720 1873 15 179 6 604 -15 757 -117 825 -474
1540 -1053 2112 -587 580 -1343 934 -2185 1023 -89 9 -559 12 -653 3z"/>
</g>
</svg>
