<svg width="399" height="399" viewBox="0 0 399 399" fill="none" xmlns="http://www.w3.org/2000/svg">
<g clip-path="url(#clip0_5697_28401)">
<path d="M199.34 398.68C309.432 398.68 398.68 309.432 398.68 199.34C398.68 89.2476 309.432 0 199.34 0C89.2476 0 0 89.2476 0 199.34C0 309.432 89.2476 398.68 199.34 398.68Z" fill="black"/>
<path d="M171.6 165.74V154.86C167.87 154.35 164.08 154.03 160.21 154.03C113.61 154.03 75.7002 191.94 75.7002 238.54C75.7002 267.13 89.9902 292.43 111.78 307.73C97.7102 292.63 89.0802 272.4 89.0802 250.19C89.0802 204.26 125.92 166.8 171.6 165.73V165.74Z" fill="#25F4EE"/>
<path d="M173.591 288.8C194.381 288.8 211.341 272.26 212.111 251.66L212.181 67.65H245.801C245.101 63.87 244.721 59.98 244.721 56H198.801L198.731 240.01C197.961 260.62 181.001 277.15 160.211 277.15C153.751 277.15 147.661 275.53 142.311 272.72C149.331 282.44 160.721 288.81 173.601 288.81L173.591 288.8Z" fill="#25F4EE"/>
<path d="M308.601 130.1V119.87C295.781 119.87 283.831 116.06 273.811 109.53C282.731 119.77 294.851 127.16 308.601 130.1Z" fill="#25F4EE"/>
<path d="M273.81 109.52C264.04 98.3 258.1 83.65 258.1 67.64H245.8C249.04 85.13 259.42 100.14 273.81 109.52Z" fill="#FE2C55"/>
<path d="M160.21 199.95C138.93 199.95 121.61 217.26 121.61 238.55C121.61 253.37 130.02 266.25 142.3 272.71C137.72 266.37 134.99 258.6 134.99 250.2C134.99 228.92 152.31 211.6 173.59 211.6C177.56 211.6 181.37 212.26 184.98 213.38V166.51C181.25 166 177.46 165.68 173.59 165.68C172.92 165.68 172.26 165.72 171.59 165.73V201.73C167.99 200.6 164.17 199.95 160.2 199.95H160.21Z" fill="#FE2C55"/>
<path d="M308.6 130.1V165.79C284.79 165.79 262.73 158.17 244.72 145.25V238.56C244.72 285.16 206.81 323.07 160.21 323.07C142.2 323.07 125.5 317.39 111.78 307.75C127.22 324.32 149.21 334.72 173.6 334.72C220.2 334.72 258.11 296.81 258.11 250.21V156.9C276.12 169.83 298.18 177.44 321.99 177.44V131.52C317.4 131.52 312.92 131.02 308.61 130.1H308.6Z" fill="#FE2C55"/>
<path d="M244.72 238.55V145.24C262.73 158.17 284.79 165.78 308.6 165.78V130.09C294.85 127.15 282.73 119.76 273.81 109.52C259.42 100.14 249.04 85.13 245.8 67.64H212.18L212.11 251.65C211.34 272.26 194.38 288.79 173.59 288.79C160.71 288.79 149.32 282.43 142.3 272.7C130.01 266.23 121.61 253.36 121.61 238.54C121.61 217.26 138.93 199.94 160.21 199.94C164.18 199.94 167.99 200.6 171.6 201.72V165.72C125.92 166.79 89.0801 204.25 89.0801 250.18C89.0801 272.4 97.7101 292.62 111.78 307.72C125.51 317.36 142.2 323.04 160.21 323.04C206.81 323.04 244.72 285.13 244.72 238.53V238.55Z" fill="white"/>
</g>
<defs>
<clipPath id="clip0_5697_28401">
<rect width="398.67" height="398.67" fill="white"/>
</clipPath>
</defs>
</svg>
