<svg width="632" height="635" viewBox="0 0 632 635" fill="none" xmlns="http://www.w3.org/2000/svg">
<path d="M428.956 580.26C457.592 580.26 483.792 572.304 506.947 558.231C519.133 536.812 525.835 511.723 525.835 484.798C525.835 402.797 459.42 336.096 377.772 336.096H296.126V256.542C296.126 174.542 229.71 107.84 148.062 107.84C120.643 107.84 94.443 115.183 72.5076 128.647C60.3215 150.676 53.0098 175.765 53.0098 202.692V424.214C53.0098 506.214 125.518 580.26 207.166 580.26H428.956Z" fill="#FA3296"/>
<path d="M428.956 580.26H207.166C125.518 580.26 53.0098 506.214 53.0098 424.214L53.0102 202.69C53.0102 175.765 60.322 150.676 72.508 128.645C29.2469 154.346 0 202.078 0 256.54V467.049C0 549.05 82.2571 634.109 163.905 634.109H377.772C433.22 634.109 481.357 603.512 506.947 558.229C483.795 572.304 456.985 580.26 428.956 580.26Z" fill="#503296"/>
<path d="M483.792 526.407H247.988C166.341 526.407 106.019 473.169 106.019 377.705V148.84C106.019 121.301 113.331 95.6005 126.736 73.5704C82.2559 99.272 52.3994 147.614 52.3994 202.69V424.214C52.3994 506.214 124.908 580.26 206.555 580.26H428.344C483.182 580.26 531.319 550.885 557.519 506.826C536.193 519.066 511.211 526.407 483.792 526.407Z" fill="#C83296"/>
<path d="M578.848 424.826C575.19 345.275 510.604 282.244 430.784 282.244H349.136V204.528C349.136 119.466 279.066 50.3171 194.371 53.9886C141.97 56.4364 96.8804 85.8098 72.508 128.645C94.4432 115.183 120.644 107.84 148.063 107.84C229.711 107.84 296.126 174.542 296.126 256.542V336.096L377.774 336.096C459.423 336.096 525.838 402.797 525.838 484.798C525.838 511.111 519.135 536.201 506.947 558.229C551.429 531.304 580.674 481.125 578.848 424.826Z" fill="#FA78B4"/>
<path d="M483.792 229.006H402.144V149.452C402.144 67.4518 335.729 0.75 254.08 0.75C199.853 0.75 152.326 30.1234 126.126 74.1832C146.233 62.5563 169.387 55.2129 193.759 53.9889C278.454 50.3174 348.524 119.466 348.524 204.528V282.244H430.172C509.992 282.244 574.578 345.275 578.236 424.826C579.455 454.812 571.533 482.96 557.519 506.826C601.998 481.125 631.855 432.781 631.855 377.708C631.855 295.095 566.05 229.006 483.792 229.006Z" fill="#FAA0C8"/>
<path d="M110.895 112.123C114.551 98.0482 120.035 85.1973 126.738 73.5704C104.193 86.4213 85.3036 105.392 72.508 128.645C84.0848 121.301 96.8811 115.794 110.895 112.123Z" fill="#FAA0C8"/>
<path d="M520.962 521.516C517.914 534.365 512.431 546.605 506.338 558.231C527.664 545.379 545.333 527.633 557.522 506.829C546.553 513.56 534.367 518.455 520.962 521.516Z" fill="#FAA0C8"/>
</svg>
